STARTFONT 2.1
FONT pelm.supsub.8
SIZE 14 72 72
FONTBOUNDINGBOX 8 14 0 -3
STARTPROPERTIES 4
FONT_DESCENT 3
FONT_ASCENT 11
DEFAULT_CHAR 0
COPYRIGHT "Copyright (C) 1985 Bigelow & Holmes Inc. All rights reserved."
ENDPROPERTIES
CHARS 31
STARTCHAR ch-0
ENCODING 0
SWIDTH 571 0
DWIDTH 8 0
BBX 8 14 0 -3
BITMAP
00
38
6c
6c
6c
38
00
00
00
00
00
00
00
00
ENDCHAR
STARTCHAR ch-1
ENCODING 1
SWIDTH 571 0
DWIDTH 8 0
BBX 8 14 0 -3
BITMAP
00
30
70
30
30
78
00
00
00
00
00
00
00
00
ENDCHAR
STARTCHAR ch-2
ENCODING 2
SWIDTH 571 0
DWIDTH 8 0
BBX 8 14 0 -3
BITMAP
00
38
6c
18
30
7c
00
00
00
00
00
00
00
00
ENDCHAR
STARTCHAR ch-3
ENCODING 3
SWIDTH 571 0
DWIDTH 8 0
BBX 8 14 0 -3
BITMAP
00
38
6c
18
6c
38
00
00
00
00
00
00
00
00
ENDCHAR
STARTCHAR ch-4
ENCODING 4
SWIDTH 571 0
DWIDTH 8 0
BBX 8 14 0 -3
BITMAP
00
38
58
5c
7c
18
00
00
00
00
00
00
00
00
ENDCHAR
STARTCHAR ch-5
ENCODING 5
SWIDTH 571 0
DWIDTH 8 0
BBX 8 14 0 -3
BITMAP
00
78
60
18
4c
78
00
00
00
00
00
00
00
00
ENDCHAR
STARTCHAR ch-6
ENCODING 6
SWIDTH 571 0
DWIDTH 8 0
BBX 8 14 0 -3
BITMAP
00
38
60
78
6c
38
00
00
00
00
00
00
00
00
ENDCHAR
STARTCHAR ch-7
ENCODING 7
SWIDTH 571 0
DWIDTH 8 0
BBX 8 14 0 -3
BITMAP
00
7c
7c
18
30
30
00
00
00
00
00
00
00
00
ENDCHAR
STARTCHAR ch-8
ENCODING 8
SWIDTH 571 0
DWIDTH 8 0
BBX 8 14 0 -3
BITMAP
00
38
6c
38
6c
38
00
00
00
00
00
00
00
00
ENDCHAR
STARTCHAR ch-9
ENCODING 9
SWIDTH 571 0
DWIDTH 8 0
BBX 8 14 0 -3
BITMAP
00
38
6c
3c
0c
38
00
00
00
00
00
00
00
00
ENDCHAR
STARTCHAR ch-10
ENCODING 10
SWIDTH 571 0
DWIDTH 8 0
BBX 8 14 0 -3
BITMAP
00
10
10
7c
10
10
00
00
00
00
00
00
00
00
ENDCHAR
STARTCHAR ch-11
ENCODING 11
SWIDTH 571 0
DWIDTH 8 0
BBX 8 14 0 -3
BITMAP
00
00
00
7c
00
00
00
00
00
00
00
00
00
00
ENDCHAR
STARTCHAR ch-12
ENCODING 12
SWIDTH 571 0
DWIDTH 8 0
BBX 8 14 0 -3
BITMAP
00
00
7c
00
7c
00
00
00
00
00
00
00
00
00
ENDCHAR
STARTCHAR ch-13
ENCODING 13
SWIDTH 571 0
DWIDTH 8 0
BBX 8 14 0 -3
BITMAP
00
18
30
30
30
18
00
00
00
00
00
00
00
00
ENDCHAR
STARTCHAR ch-14
ENCODING 14
SWIDTH 571 0
DWIDTH 8 0
BBX 8 14 0 -3
BITMAP
00
30
18
18
18
30
00
00
00
00
00
00
00
00
ENDCHAR
STARTCHAR ch-15
ENCODING 15
SWIDTH 571 0
DWIDTH 8 0
BBX 8 14 0 -3
BITMAP
00
6c
74
64
64
64
00
00
00
00
00
00
00
00
ENDCHAR
STARTCHAR ch-16
ENCODING 16
SWIDTH 571 0
DWIDTH 8 0
BBX 8 14 0 -3
BITMAP
00
00
00
00
00
00
00
38
6c
6c
6c
38
00
00
ENDCHAR
STARTCHAR ch-17
ENCODING 17
SWIDTH 571 0
DWIDTH 8 0
BBX 8 14 0 -3
BITMAP
00
00
00
00
00
00
00
30
70
30
30
78
00
00
ENDCHAR
STARTCHAR ch-18
ENCODING 18
SWIDTH 571 0
DWIDTH 8 0
BBX 8 14 0 -3
BITMAP
00
00
00
00
00
00
00
38
6c
18
30
7c
00
00
ENDCHAR
STARTCHAR ch-19
ENCODING 19
SWIDTH 571 0
DWIDTH 8 0
BBX 8 14 0 -3
BITMAP
00
00
00
00
00
00
00
38
6c
18
6c
38
00
00
ENDCHAR
STARTCHAR ch-20
ENCODING 20
SWIDTH 571 0
DWIDTH 8 0
BBX 8 14 0 -3
BITMAP
00
00
00
00
00
00
00
38
58
5c
7c
18
00
00
ENDCHAR
STARTCHAR ch-21
ENCODING 21
SWIDTH 571 0
DWIDTH 8 0
BBX 8 14 0 -3
BITMAP
00
00
00
00
00
00
00
78
60
18
4c
78
00
00
ENDCHAR
STARTCHAR ch-22
ENCODING 22
SWIDTH 571 0
DWIDTH 8 0
BBX 8 14 0 -3
BITMAP
00
00
00
00
00
00
00
38
60
78
6c
38
00
00
ENDCHAR
STARTCHAR ch-23
ENCODING 23
SWIDTH 571 0
DWIDTH 8 0
BBX 8 14 0 -3
BITMAP
00
00
00
00
00
00
00
7c
7c
18
30
30
00
00
ENDCHAR
STARTCHAR ch-24
ENCODING 24
SWIDTH 571 0
DWIDTH 8 0
BBX 8 14 0 -3
BITMAP
00
00
00
00
00
00
00
38
6c
38
6c
38
00
00
ENDCHAR
STARTCHAR ch-25
ENCODING 25
SWIDTH 571 0
DWIDTH 8 0
BBX 8 14 0 -3
BITMAP
00
00
00
00
00
00
00
38
6c
3c
0c
38
00
00
ENDCHAR
STARTCHAR ch-26
ENCODING 26
SWIDTH 571 0
DWIDTH 8 0
BBX 8 14 0 -3
BITMAP
00
00
00
00
00
00
00
10
10
7c
10
10
00
00
ENDCHAR
STARTCHAR ch-27
ENCODING 27
SWIDTH 571 0
DWIDTH 8 0
BBX 8 14 0 -3
BITMAP
00
00
00
00
00
00
00
00
00
7c
00
00
00
00
ENDCHAR
STARTCHAR ch-28
ENCODING 28
SWIDTH 571 0
DWIDTH 8 0
BBX 8 14 0 -3
BITMAP
00
00
00
00
00
00
00
00
7c
00
7c
00
00
00
ENDCHAR
STARTCHAR ch-29
ENCODING 29
SWIDTH 571 0
DWIDTH 8 0
BBX 8 14 0 -3
BITMAP
00
00
00
00
00
00
00
18
30
30
30
18
00
00
ENDCHAR
STARTCHAR ch-30
ENCODING 30
SWIDTH 571 0
DWIDTH 8 0
BBX 8 14 0 -3
BITMAP
00
00
00
00
00
00
00
30
18
18
18
30
00
00
ENDCHAR
ENDFONT
